# Blender 5.0.1
# www.blender.org
mtllib D.mtl
o D
v -4.148697 -3.955904 -1.260695
v -0.158697 -3.955904 -1.260695
v 0.657127 -3.905391 -1.260695
v 1.415400 -3.759306 -1.260695
v 2.113568 -3.525826 -1.260695
v 2.749080 -3.213126 -1.260695
v 3.319384 -2.829385 -1.260695
v 3.821927 -2.382779 -1.260695
v 4.254158 -1.881485 -1.260695
v 4.613524 -1.333682 -1.260695
v 4.897473 -0.747545 -1.260695
v 5.103455 -0.131252 -1.260695
v 5.228915 0.507021 -1.260695
v 5.271303 1.159097 -1.260695
v 5.236355 1.767057 -1.260695
v 5.130469 2.376527 -1.260695
v 4.952084 2.977143 -1.260695
v 4.699636 3.558541 -1.260695
v 4.371563 4.110355 -1.260695
v 3.966303 4.622221 -1.260695
v 3.482293 5.083776 -1.260695
v 2.917971 5.484652 -1.260695
v 2.271773 5.814487 -1.260695
v 1.542137 6.062916 -1.260695
v 0.727502 6.219572 -1.260695
v -0.173697 6.274097 -1.260695
v -4.148697 6.274097 -1.260695
v -2.678697 4.954097 -1.260695
v -0.413697 4.954097 -1.260695
v 0.270200 4.918672 -1.260695
v 0.889983 4.815695 -1.260695
v 1.446537 4.650113 -1.260695
v 1.940747 4.426874 -1.260695
v 2.373499 4.150928 -1.260695
v 2.745678 3.827221 -1.260695
v 3.058170 3.460703 -1.260695
v 3.311859 3.056319 -1.260695
v 3.507632 2.619019 -1.260695
v 3.646374 2.153749 -1.260695
v 3.728969 1.665460 -1.260695
v 3.756303 1.159097 -1.260695
v 3.739324 0.819739 -1.260695
v 3.684220 0.440486 -1.260695
v 3.584740 0.034565 -1.260695
v 3.434636 -0.384793 -1.260695
v 3.227657 -0.804358 -1.260695
v 2.957553 -1.210904 -1.260695
v 2.618074 -1.591199 -1.260695
v 2.202970 -1.932015 -1.260695
v 1.705991 -2.220122 -1.260695
v 1.120886 -2.442292 -1.260695
v 0.441407 -2.585296 -1.260695
v -0.338697 -2.635904 -1.260695
v -2.678697 -2.635904 -1.260695
v -4.148697 -3.955904 1.257136
v -4.148697 6.274097 1.257136
v -2.678697 4.954097 1.257136
v -0.173697 6.274097 1.257136
v 0.727502 6.219572 1.257136
v 1.542137 6.062916 1.257136
v 2.271773 5.814487 1.257136
v 2.917971 5.484652 1.257136
v 3.482293 5.083776 1.257136
v -0.413697 4.954097 1.257136
v 0.270200 4.918672 1.257136
v 3.966303 4.622221 1.257136
v -2.678697 -2.635904 1.257136
v 0.889983 4.815695 1.257136
v 1.446537 4.650113 1.257136
v 1.940747 4.426874 1.257136
v 4.371563 4.110355 1.257136
v 2.373499 4.150928 1.257136
v 2.745678 3.827221 1.257136
v 4.699636 3.558541 1.257136
v 3.058170 3.460703 1.257136
v 4.952084 2.977143 1.257136
v 3.311859 3.056319 1.257136
v 3.507632 2.619019 1.257136
v 5.130469 2.376527 1.257136
v 3.646374 2.153749 1.257136
v 5.236355 1.767057 1.257136
v 3.728969 1.665460 1.257136
v 5.271303 1.159097 1.257136
v 3.756303 1.159097 1.257136
v 3.739324 0.819739 1.257136
v 5.228915 0.507021 1.257136
v 3.684220 0.440486 1.257136
v 5.103455 -0.131251 1.257136
v 3.584740 0.034565 1.257136
v 3.434636 -0.384792 1.257136
v 4.897473 -0.747545 1.257136
v 3.227657 -0.804358 1.257136
v 4.613524 -1.333682 1.257136
v 2.957553 -1.210903 1.257136
v 2.618074 -1.591198 1.257136
v 4.254158 -1.881485 1.257136
v 2.202970 -1.932014 1.257136
v 3.821927 -2.382779 1.257136
v 1.705991 -2.220122 1.257136
v 1.120886 -2.442293 1.257136
v 3.319384 -2.829384 1.257136
v 0.441407 -2.585296 1.257136
v -0.338697 -2.635904 1.257136
v 2.749080 -3.213126 1.257136
v 2.113568 -3.525825 1.257136
v 1.415400 -3.759306 1.257136
v 0.657127 -3.905391 1.257136
v -0.158697 -3.955904 1.257136
vn -0.0000 -0.0000 -1.0000
vn -0.0000 -0.0000 1.0000
vn 0.9586 0.2847 -0.0000
vn 0.6901 0.7237 -0.0000
vn 0.5583 -0.8297 -0.0000
vn -0.9583 -0.2858 -0.0000
vn 0.9000 -0.4360 -0.0000
vn 1.0000 -0.0000 -0.0000
vn 0.4415 -0.8973 -0.0000
vn -0.8329 0.5534 -0.0000
vn -0.1639 -0.9865 -0.0000
vn 0.9852 0.1712 -0.0000
vn 0.3172 -0.9484 -0.0000
vn -0.7460 0.6659 -0.0000
vn -0.9860 -0.1668 -0.0000
vn -0.2852 -0.9585 -0.0000
vn -1.0000 -0.0000 -0.0000
vn 0.1892 -0.9819 -0.0000
vn -0.4117 -0.9113 -0.0000
vn -0.0000 -1.0000 -0.0000
vn 0.8361 -0.5485 -0.0000
vn 0.9984 0.0574 -0.0000
vn 0.0618 -0.9981 -0.0000
vn -0.6346 0.7729 -0.0000
vn -0.9985 -0.0539 -0.0000
vn 0.7840 0.6207 -0.0000
vn -0.0000 1.0000 -0.0000
vn -0.9988 0.0500 -0.0000
vn -0.5376 -0.8432 -0.0000
vn 0.7573 -0.6530 -0.0000
vn 0.0604 0.9982 -0.0000
vn -0.5015 0.8651 -0.0000
vn -0.6563 -0.7545 -0.0000
vn 0.9979 -0.0649 -0.0000
vn 0.1888 0.9820 -0.0000
vn -0.3550 0.9349 -0.0000
vn -0.9896 0.1438 -0.0000
vn 0.8596 0.5110 -0.0000
vn 0.3223 0.9466 -0.0000
vn -0.7610 -0.6488 -0.0000
vn 0.6643 -0.7475 -0.0000
vn 0.9812 -0.1929 -0.0000
vn 0.4546 0.8907 -0.0000
vn -0.2059 0.9786 -0.0000
vn -0.9713 0.2380 -0.0000
vn 0.9173 0.3983 -0.0000
vn 0.5791 0.8152 -0.0000
vn -0.0647 0.9979 -0.0000
vn -0.9415 0.3370 -0.0000
vn -0.8471 -0.5314 -0.0000
vn -0.9127 -0.4086 -0.0000
vn -0.0517 -0.9987 -0.0000
vn 0.9484 -0.3170 -0.0000
vn -0.8968 0.4424 -0.0000
s 1
f 1//1 27//1 28//1
f 28//1 27//1 26//1
f 28//1 26//1 25//1
f 28//1 25//1 24//1
f 28//1 24//1 23//1
f 28//1 23//1 22//1
f 28//1 22//1 21//1
f 28//1 21//1 29//1
f 29//1 21//1 30//1
f 30//1 21//1 20//1
f 1//1 28//1 54//1
f 31//1 30//1 20//1
f 32//1 31//1 20//1
f 33//1 32//1 20//1
f 33//1 20//1 19//1
f 34//1 33//1 19//1
f 35//1 34//1 19//1
f 35//1 19//1 18//1
f 36//1 35//1 18//1
f 36//1 18//1 17//1
f 37//1 36//1 17//1
f 38//1 37//1 17//1
f 38//1 17//1 16//1
f 39//1 38//1 16//1
f 39//1 16//1 15//1
f 40//1 39//1 15//1
f 40//1 15//1 14//1
f 41//1 40//1 14//1
f 42//1 41//1 14//1
f 42//1 14//1 13//1
f 43//1 42//1 13//1
f 43//1 13//1 12//1
f 44//1 43//1 12//1
f 45//1 44//1 12//1
f 45//1 12//1 11//1
f 46//1 45//1 11//1
f 46//1 11//1 10//1
f 47//1 46//1 10//1
f 48//1 47//1 10//1
f 48//1 10//1 9//1
f 49//1 48//1 9//1
f 49//1 9//1 8//1
f 50//1 49//1 8//1
f 51//1 50//1 8//1
f 51//1 8//1 7//1
f 52//1 51//1 7//1
f 53//1 52//1 7//1
f 1//1 54//1 53//1
f 1//1 53//1 7//1
f 1//1 7//1 6//1
f 1//1 6//1 5//1
f 1//1 5//1 4//1
f 1//1 4//1 3//1
f 1//1 3//1 2//1
f 55//2 57//2 56//2
f 57//2 58//2 56//2
f 57//2 59//2 58//2
f 57//2 60//2 59//2
f 57//2 61//2 60//2
f 57//2 62//2 61//2
f 57//2 63//2 62//2
f 57//2 64//2 63//2
f 64//2 65//2 63//2
f 65//2 66//2 63//2
f 55//2 67//2 57//2
f 68//2 66//2 65//2
f 69//2 66//2 68//2
f 70//2 66//2 69//2
f 70//2 71//2 66//2
f 72//2 71//2 70//2
f 73//2 71//2 72//2
f 73//2 74//2 71//2
f 75//2 74//2 73//2
f 75//2 76//2 74//2
f 77//2 76//2 75//2
f 78//2 76//2 77//2
f 78//2 79//2 76//2
f 80//2 79//2 78//2
f 80//2 81//2 79//2
f 82//2 81//2 80//2
f 82//2 83//2 81//2
f 84//2 83//2 82//2
f 85//2 83//2 84//2
f 85//2 86//2 83//2
f 87//2 86//2 85//2
f 87//2 88//2 86//2
f 89//2 88//2 87//2
f 90//2 88//2 89//2
f 90//2 91//2 88//2
f 92//2 91//2 90//2
f 92//2 93//2 91//2
f 94//2 93//2 92//2
f 95//2 93//2 94//2
f 95//2 96//2 93//2
f 97//2 96//2 95//2
f 97//2 98//2 96//2
f 99//2 98//2 97//2
f 100//2 98//2 99//2
f 100//2 101//2 98//2
f 102//2 101//2 100//2
f 103//2 101//2 102//2
f 55//2 103//2 67//2
f 55//2 101//2 103//2
f 55//2 104//2 101//2
f 55//2 105//2 104//2
f 55//2 106//2 105//2
f 55//2 107//2 106//2
f 55//2 108//2 107//2
f 16//3 17//3 76//3 79//3
f 20//4 21//4 63//4 66//4
f 6//5 7//5 101//5 104//5
f 38//6 39//6 80//6 78//6
f 10//7 11//7 91//7 93//7
f 54//8 28//8 57//8 67//8
f 5//9 6//9 104//9 105//9
f 46//10 47//10 94//10 92//10
f 30//11 31//11 68//11 65//11
f 15//12 16//12 79//12 81//12
f 4//13 5//13 105//13 106//13
f 47//14 48//14 95//14 94//14
f 39//15 40//15 82//15 80//15
f 31//16 32//16 69//16 68//16
f 27//17 1//17 55//17 56//17
f 3//18 4//18 106//18 107//18
f 32//19 33//19 70//19 69//19
f 1//20 2//20 108//20 55//20
f 9//21 10//21 93//21 96//21
f 14//22 15//22 81//22 83//22
f 2//23 3//23 107//23 108//23
f 48//24 49//24 97//24 95//24
f 40//25 41//25 84//25 82//25
f 19//26 20//26 66//26 71//26
f 26//27 27//27 56//27 58//27
f 41//28 42//28 85//28 84//28
f 33//29 34//29 72//29 70//29
f 8//30 9//30 96//30 98//30
f 25//31 26//31 58//31 59//31
f 49//32 50//32 99//32 97//32
f 34//33 35//33 73//33 72//33
f 13//34 14//34 83//34 86//34
f 24//35 25//35 59//35 60//35
f 50//36 51//36 100//36 99//36
f 42//37 43//37 87//37 85//37
f 18//38 19//38 71//38 74//38
f 23//39 24//39 60//39 61//39
f 35//40 36//40 75//40 73//40
f 7//41 8//41 98//41 101//41
f 12//42 13//42 86//42 88//42
f 22//43 23//43 61//43 62//43
f 51//44 52//44 102//44 100//44
f 43//45 44//45 89//45 87//45
f 17//46 18//46 74//46 76//46
f 21//47 22//47 62//47 63//47
f 52//48 53//48 103//48 102//48
f 44//49 45//49 90//49 89//49
f 36//50 37//50 77//50 75//50
f 28//20 29//20 64//20 57//20
f 37//51 38//51 78//51 77//51
f 29//52 30//52 65//52 64//52
f 53//27 54//27 67//27 103//27
f 11//53 12//53 88//53 91//53
f 45//54 46//54 92//54 90//54
