# Blender 5.0.1
# www.blender.org
mtllib L.mtl
o L
v -1.608686 6.303040 -1.376956
v -3.078686 6.303040 -1.376956
v -3.078686 -3.926960 -1.376956
v 3.011313 -3.926960 -1.376956
v 3.011313 -2.606960 -1.376956
v -1.608686 -2.606960 -1.376956
v -3.078686 6.303040 1.321224
v -3.078686 -3.926960 1.321225
v -1.608686 6.303040 1.321224
v -1.608686 -2.606960 1.321225
v 3.011313 -2.606960 1.321225
v 3.011313 -3.926960 1.321225
vn -0.0000 -0.0000 -1.0000
vn -0.0000 -0.0000 1.0000
vn -0.0000 1.0000 -0.0000
vn 1.0000 -0.0000 -0.0000
vn -1.0000 -0.0000 -0.0000
vn -0.0000 -1.0000 -0.0000
s 1
f 3//1 2//1 1//1
f 3//1 1//1 6//1
f 3//1 6//1 5//1
f 3//1 5//1 4//1
f 8//2 9//2 7//2
f 8//2 10//2 9//2
f 8//2 11//2 10//2
f 8//2 12//2 11//2
f 5//3 6//3 10//3 11//3
f 6//4 1//4 9//4 10//4
f 1//3 2//3 7//3 9//3
f 2//5 3//5 8//5 7//5
f 3//6 4//6 12//6 8//6
f 4//4 5//4 11//4 12//4
