# Blender 5.0.1
# www.blender.org
mtllib O.mtl
o O
v -5.496518 1.214359 -1.030595
v -5.452967 0.528118 -1.030595
v -5.324366 -0.138071 -1.030596
v -5.113784 -0.776656 -1.030596
v -4.824296 -1.380085 -1.030596
v -4.458975 -1.940806 -1.030596
v -4.020893 -2.451266 -1.030595
v -3.513124 -2.903914 -1.030595
v -2.938740 -3.291197 -1.030595
v -2.300815 -3.605563 -1.030595
v -1.602421 -3.839461 -1.030595
v -0.846631 -3.985337 -1.030595
v -0.036518 -4.035641 -1.030595
v 0.800279 -3.985050 -1.030595
v 1.576607 -3.838419 -1.030595
v 2.290122 -3.603453 -1.030595
v 2.938483 -3.287863 -1.030595
v 3.519342 -2.899356 -1.030595
v 4.030357 -2.445641 -1.030595
v 4.469185 -1.934426 -1.030596
v 4.833482 -1.373419 -1.030596
v 5.120903 -0.770328 -1.030596
v 5.329108 -0.132863 -1.030596
v 5.455748 0.531269 -1.030595
v 5.498483 1.214359 -1.030595
v 5.454620 1.916356 -1.030595
v 5.325080 2.592831 -1.030595
v 5.112936 3.237016 -1.030595
v 4.821261 3.842136 -1.030595
v 4.453127 4.401425 -1.030596
v 4.011608 4.908110 -1.030596
v 3.499776 5.355419 -1.030596
v 2.920705 5.736582 -1.030596
v 2.277467 6.044828 -1.030596
v 1.573135 6.273388 -1.030596
v 0.810782 6.415487 -1.030596
v -0.006518 6.464359 -1.030596
v -0.810919 6.415202 -1.030596
v -1.564227 6.272346 -1.030596
v -2.262846 6.042720 -1.030596
v -2.903185 5.733249 -1.030596
v -3.481648 5.350862 -1.030596
v -3.994643 4.902485 -1.030596
v -4.438576 4.395046 -1.030596
v -4.809852 3.835470 -1.030595
v -5.104877 3.230687 -1.030595
v -5.320059 2.587623 -1.030595
v -5.451804 1.913204 -1.030595
v -3.981518 1.214359 -1.030595
v -3.946848 1.763752 -1.030595
v -3.845407 2.284498 -1.030595
v -3.681049 2.772953 -1.030595
v -3.457629 3.225471 -1.030595
v -3.179000 3.638404 -1.030595
v -2.849018 4.008109 -1.030596
v -2.471535 4.330939 -1.030596
v -2.050407 4.603248 -1.030596
v -1.589487 4.821390 -1.030596
v -1.092629 4.981720 -1.030596
v -0.563688 5.080591 -1.030596
v -0.006518 5.114360 -1.030596
v 0.554099 5.080592 -1.030596
v 1.085913 4.981721 -1.030596
v 1.585123 4.821391 -1.030596
v 2.047926 4.603249 -1.030596
v 2.470522 4.330940 -1.030596
v 2.849107 4.008109 -1.030596
v 3.179880 3.638405 -1.030595
v 3.459037 3.225471 -1.030595
v 3.682779 2.772954 -1.030595
v 3.847301 2.284499 -1.030595
v 3.948802 1.763752 -1.030595
v 3.983483 1.214359 -1.030595
v 3.948803 0.668118 -1.030595
v 3.847302 0.149429 -1.030596
v 3.682780 -0.337906 -1.030596
v 3.459038 -0.790085 -1.030596
v 3.179881 -1.203306 -1.030596
v 2.849108 -1.573766 -1.030596
v 2.470523 -1.897663 -1.030596
v 2.047927 -2.171196 -1.030596
v 1.585124 -2.390562 -1.030596
v 1.085914 -2.551960 -1.030595
v 0.554099 -2.651586 -1.030595
v -0.006518 -2.685641 -1.030595
v -0.563688 -2.651587 -1.030595
v -1.092629 -2.551960 -1.030595
v -1.589487 -2.390563 -1.030596
v -2.050407 -2.171196 -1.030596
v -2.471535 -1.897663 -1.030596
v -2.849018 -1.573766 -1.030596
v -3.179000 -1.203306 -1.030596
v -3.457629 -0.790085 -1.030596
v -3.681048 -0.337907 -1.030596
v -3.845406 0.149429 -1.030596
v -3.946847 0.668118 -1.030595
v -0.006518 6.464359 1.030599
v -0.810919 6.415202 1.030599
v 0.810782 6.415487 1.030599
v 1.573135 6.273388 1.030599
v -1.564227 6.272346 1.030599
v 2.277467 6.044828 1.030599
v -2.262846 6.042720 1.030599
v 2.920705 5.736582 1.030599
v -2.903185 5.733249 1.030599
v 3.499776 5.355419 1.030599
v -3.481648 5.350862 1.030599
v 4.011608 4.908110 1.030599
v -3.994643 4.902485 1.030599
v -0.006518 5.114360 1.030599
v -0.563688 5.080591 1.030599
v 0.554099 5.080592 1.030599
v 1.085913 4.981721 1.030599
v -1.092629 4.981720 1.030599
v 1.585123 4.821391 1.030599
v -1.589487 4.821390 1.030599
v 4.453127 4.401425 1.030599
v -4.438576 4.395046 1.030599
v 2.047926 4.603249 1.030599
v -2.050407 4.603248 1.030599
v 2.470522 4.330940 1.030599
v -2.471535 4.330939 1.030599
v 4.821261 3.842136 1.030599
v -4.809852 3.835470 1.030599
v 2.849107 4.008109 1.030599
v -2.849018 4.008109 1.030599
v 3.179880 3.638405 1.030599
v -3.179000 3.638404 1.030599
v 5.112936 3.237016 1.030599
v -5.104877 3.230687 1.030599
v 3.459037 3.225471 1.030599
v -3.457629 3.225471 1.030599
v 5.325080 2.592831 1.030599
v -5.320059 2.587623 1.030599
v 3.682779 2.772954 1.030599
v -3.681049 2.772953 1.030599
v 3.847301 2.284499 1.030599
v -3.845407 2.284498 1.030599
v 5.454620 1.916356 1.030599
v -5.451804 1.913204 1.030599
v 3.948802 1.763752 1.030599
v -3.946848 1.763752 1.030599
v 5.498483 1.214359 1.030599
v -5.496518 1.214359 1.030599
v 3.983483 1.214359 1.030599
v -3.981518 1.214359 1.030599
v -5.452967 0.528118 1.030599
v -3.946847 0.668118 1.030599
v 3.948803 0.668118 1.030599
v 5.455748 0.531269 1.030599
v -3.845406 0.149429 1.030599
v 3.847302 0.149429 1.030599
v 5.329108 -0.132863 1.030599
v -5.324366 -0.138071 1.030599
v -3.681048 -0.337906 1.030599
v 3.682780 -0.337906 1.030599
v 5.120903 -0.770328 1.030599
v -5.113784 -0.776656 1.030599
v 3.459038 -0.790085 1.030599
v -3.457629 -0.790085 1.030599
v 4.833482 -1.373419 1.030599
v -4.824296 -1.380085 1.030599
v 3.179881 -1.203305 1.030599
v -3.179000 -1.203305 1.030599
v 2.849108 -1.573765 1.030599
v -2.849018 -1.573766 1.030599
v 4.469185 -1.934426 1.030599
v -4.458975 -1.940806 1.030599
v 2.470523 -1.897663 1.030599
v -2.471535 -1.897663 1.030599
v 2.047927 -2.171196 1.030599
v -2.050407 -2.171196 1.030599
v 4.030357 -2.445641 1.030599
v -4.020893 -2.451266 1.030599
v 1.585124 -2.390562 1.030599
v -1.589487 -2.390563 1.030599
v 1.085914 -2.551960 1.030599
v -1.092629 -2.551960 1.030599
v 3.519342 -2.899356 1.030599
v -3.513124 -2.903913 1.030599
v 0.554099 -2.651586 1.030599
v -0.563688 -2.651587 1.030599
v -0.006518 -2.685641 1.030599
v 2.938483 -3.287863 1.030599
v -2.938740 -3.291196 1.030599
v 2.290122 -3.603454 1.030599
v -2.300815 -3.605563 1.030599
v 1.576607 -3.838418 1.030599
v -1.602421 -3.839460 1.030599
v 0.800279 -3.985050 1.030599
v -0.846631 -3.985337 1.030599
v -0.036518 -4.035641 1.030599
vn -0.0000 -0.0000 -1.0000
vn -0.0000 -0.0000 1.0000
vn 0.1856 -0.9826 -0.0000
vn 0.6499 -0.7600 -0.0000
vn 0.1832 0.9831 -0.0000
vn -0.9814 0.1917 -0.0000
vn -0.1895 -0.9819 -0.0000
vn -0.7453 -0.6668 -0.0000
vn 0.6639 -0.7478 -0.0000
vn 0.7467 0.6651 -0.0000
vn -0.1863 0.9825 -0.0000
vn 0.9823 -0.1873 -0.0000
vn -0.6654 -0.7465 -0.0000
vn 0.1837 -0.9830 -0.0000
vn -0.9819 -0.1895 -0.0000
vn -0.9815 -0.1913 -0.0000
vn -0.0620 -0.9981 -0.0000
vn -0.3058 -0.9521 -0.0000
vn 0.8387 -0.5446 -0.0000
vn 0.0603 -0.9982 -0.0000
vn 0.7460 -0.6659 -0.0000
vn -0.1841 0.9829 -0.0000
vn -0.8379 -0.5459 -0.0000
vn 0.3087 0.9512 -0.0000
vn -0.3123 0.9500 -0.0000
vn 0.9476 0.3196 -0.0000
vn 0.9816 -0.1912 -0.0000
vn 0.9008 0.4342 -0.0000
vn 0.3071 -0.9517 -0.0000
vn -0.6501 0.7599 -0.0000
vn -0.9475 0.3199 -0.0000
vn -0.8988 0.4384 -0.0000
vn 0.1851 0.9827 -0.0000
vn 0.9981 0.0624 -0.0000
vn -0.0606 0.9982 -0.0000
vn 0.7539 0.6570 -0.0000
vn 0.4322 0.9018 -0.0000
vn -0.9980 0.0639 -0.0000
vn -0.8285 -0.5601 -0.0000
vn -0.7526 0.6584 -0.0000
vn 0.6512 0.7589 -0.0000
vn -0.4351 0.9004 -0.0000
vn 0.9506 -0.3105 -0.0000
vn -0.5434 0.8395 -0.0000
vn -0.9497 -0.3132 -0.0000
vn -0.9980 -0.0630 -0.0000
vn 0.0610 0.9981 -0.0000
vn -0.4264 -0.9046 -0.0000
vn 0.8289 -0.5593 -0.0000
vn 0.5498 0.8353 -0.0000
vn -0.8963 0.4435 -0.0000
vn 0.5447 0.8386 -0.0000
vn -0.5514 0.8342 -0.0000
vn 0.9980 -0.0630 -0.0000
vn 0.9498 0.3128 -0.0000
vn 0.5560 -0.8312 -0.0000
vn 0.4278 -0.9039 -0.0000
vn -0.9980 -0.0633 -0.0000
vn -0.9483 0.3173 -0.0000
vn -0.5591 -0.8291 -0.0000
vn -0.5417 -0.8406 -0.0000
vn 0.7588 -0.6513 -0.0000
vn 0.8965 0.4430 -0.0000
vn -0.7589 -0.6513 -0.0000
vn 0.6581 0.7530 -0.0000
vn -0.8964 -0.4432 -0.0000
vn -0.6581 0.7529 -0.0000
vn 0.9027 -0.4302 -0.0000
vn 0.9980 0.0633 -0.0000
vn 0.4377 -0.8991 -0.0000
vn 0.5430 -0.8397 -0.0000
vn -0.4283 0.9036 -0.0000
vn -0.9016 -0.4325 -0.0000
vn -0.9980 0.0634 -0.0000
vn -0.4420 -0.8970 -0.0000
vn 0.8967 -0.4427 -0.0000
vn 0.8353 0.5498 -0.0000
vn -0.8286 0.5598 -0.0000
vn -0.9477 -0.3192 -0.0000
vn -0.8333 0.5529 -0.0000
vn 0.4297 0.9030 -0.0000
vn 0.9980 -0.0624 -0.0000
vn 0.3128 -0.9498 -0.0000
vn -0.3076 0.9515 -0.0000
vn 0.0605 -0.9982 -0.0000
vn -0.0610 0.9981 -0.0000
vn -0.3176 -0.9482 -0.0000
vn -0.6489 -0.7609 -0.0000
vn -0.0601 -0.9982 -0.0000
vn 0.8291 0.5591 -0.0000
vn 0.9814 0.1919 -0.0000
vn 0.9478 -0.3189 -0.0000
vn -0.7459 0.6660 -0.0000
vn 0.0597 0.9982 -0.0000
vn -0.9814 0.1920 -0.0000
vn 0.3089 0.9511 -0.0000
vn -0.1828 -0.9832 -0.0000
vn 0.9822 0.1881 -0.0000
s 1
f 38//1 37//1 36//1
f 38//1 36//1 35//1
f 39//1 38//1 35//1
f 39//1 35//1 34//1
f 40//1 39//1 34//1
f 40//1 34//1 33//1
f 41//1 40//1 33//1
f 41//1 33//1 32//1
f 42//1 41//1 32//1
f 42//1 32//1 31//1
f 43//1 42//1 61//1
f 61//1 42//1 31//1
f 43//1 61//1 60//1
f 62//1 61//1 31//1
f 63//1 62//1 31//1
f 43//1 60//1 59//1
f 64//1 63//1 31//1
f 43//1 59//1 58//1
f 64//1 31//1 30//1
f 44//1 43//1 58//1
f 65//1 64//1 30//1
f 44//1 58//1 57//1
f 66//1 65//1 30//1
f 44//1 57//1 56//1
f 66//1 30//1 29//1
f 45//1 44//1 56//1
f 67//1 66//1 29//1
f 45//1 56//1 55//1
f 68//1 67//1 29//1
f 45//1 55//1 54//1
f 68//1 29//1 28//1
f 46//1 45//1 54//1
f 69//1 68//1 28//1
f 46//1 54//1 53//1
f 69//1 28//1 27//1
f 47//1 46//1 53//1
f 70//1 69//1 27//1
f 47//1 53//1 52//1
f 71//1 70//1 27//1
f 47//1 52//1 51//1
f 71//1 27//1 26//1
f 48//1 47//1 51//1
f 72//1 71//1 26//1
f 48//1 51//1 50//1
f 72//1 26//1 25//1
f 1//1 48//1 50//1
f 73//1 72//1 25//1
f 1//1 50//1 49//1
f 2//1 1//1 49//1
f 2//1 49//1 96//1
f 74//1 73//1 25//1
f 74//1 25//1 24//1
f 2//1 96//1 95//1
f 75//1 74//1 24//1
f 75//1 24//1 23//1
f 3//1 2//1 95//1
f 3//1 95//1 94//1
f 76//1 75//1 23//1
f 76//1 23//1 22//1
f 4//1 3//1 94//1
f 77//1 76//1 22//1
f 4//1 94//1 93//1
f 77//1 22//1 21//1
f 5//1 4//1 93//1
f 78//1 77//1 21//1
f 5//1 93//1 92//1
f 79//1 78//1 21//1
f 5//1 92//1 91//1
f 79//1 21//1 20//1
f 6//1 5//1 91//1
f 80//1 79//1 20//1
f 6//1 91//1 90//1
f 81//1 80//1 20//1
f 6//1 90//1 89//1
f 81//1 20//1 19//1
f 7//1 6//1 89//1
f 82//1 81//1 19//1
f 7//1 89//1 88//1
f 83//1 82//1 19//1
f 7//1 88//1 87//1
f 83//1 19//1 18//1
f 8//1 7//1 87//1
f 84//1 83//1 18//1
f 8//1 87//1 86//1
f 85//1 84//1 18//1
f 8//1 86//1 85//1
f 8//1 85//1 18//1
f 8//1 18//1 17//1
f 9//1 8//1 17//1
f 9//1 17//1 16//1
f 10//1 9//1 16//1
f 10//1 16//1 15//1
f 11//1 10//1 15//1
f 11//1 15//1 14//1
f 12//1 11//1 14//1
f 12//1 14//1 13//1
f 98//2 99//2 97//2
f 98//2 100//2 99//2
f 101//2 100//2 98//2
f 101//2 102//2 100//2
f 103//2 102//2 101//2
f 103//2 104//2 102//2
f 105//2 104//2 103//2
f 105//2 106//2 104//2
f 107//2 106//2 105//2
f 107//2 108//2 106//2
f 109//2 110//2 107//2
f 110//2 108//2 107//2
f 109//2 111//2 110//2
f 112//2 108//2 110//2
f 113//2 108//2 112//2
f 109//2 114//2 111//2
f 115//2 108//2 113//2
f 109//2 116//2 114//2
f 115//2 117//2 108//2
f 118//2 116//2 109//2
f 119//2 117//2 115//2
f 118//2 120//2 116//2
f 121//2 117//2 119//2
f 118//2 122//2 120//2
f 121//2 123//2 117//2
f 124//2 122//2 118//2
f 125//2 123//2 121//2
f 124//2 126//2 122//2
f 127//2 123//2 125//2
f 124//2 128//2 126//2
f 127//2 129//2 123//2
f 130//2 128//2 124//2
f 131//2 129//2 127//2
f 130//2 132//2 128//2
f 131//2 133//2 129//2
f 134//2 132//2 130//2
f 135//2 133//2 131//2
f 134//2 136//2 132//2
f 137//2 133//2 135//2
f 134//2 138//2 136//2
f 137//2 139//2 133//2
f 140//2 138//2 134//2
f 141//2 139//2 137//2
f 140//2 142//2 138//2
f 141//2 143//2 139//2
f 144//2 142//2 140//2
f 145//2 143//2 141//2
f 144//2 146//2 142//2
f 147//2 146//2 144//2
f 147//2 148//2 146//2
f 149//2 143//2 145//2
f 149//2 150//2 143//2
f 147//2 151//2 148//2
f 152//2 150//2 149//2
f 152//2 153//2 150//2
f 154//2 151//2 147//2
f 154//2 155//2 151//2
f 156//2 153//2 152//2
f 156//2 157//2 153//2
f 158//2 155//2 154//2
f 159//2 157//2 156//2
f 158//2 160//2 155//2
f 159//2 161//2 157//2
f 162//2 160//2 158//2
f 163//2 161//2 159//2
f 162//2 164//2 160//2
f 165//2 161//2 163//2
f 162//2 166//2 164//2
f 165//2 167//2 161//2
f 168//2 166//2 162//2
f 169//2 167//2 165//2
f 168//2 170//2 166//2
f 171//2 167//2 169//2
f 168//2 172//2 170//2
f 171//2 173//2 167//2
f 174//2 172//2 168//2
f 175//2 173//2 171//2
f 174//2 176//2 172//2
f 177//2 173//2 175//2
f 174//2 178//2 176//2
f 177//2 179//2 173//2
f 180//2 178//2 174//2
f 181//2 179//2 177//2
f 180//2 182//2 178//2
f 183//2 179//2 181//2
f 180//2 183//2 182//2
f 180//2 179//2 183//2
f 180//2 184//2 179//2
f 185//2 184//2 180//2
f 185//2 186//2 184//2
f 187//2 186//2 185//2
f 187//2 188//2 186//2
f 189//2 188//2 187//2
f 189//2 190//2 188//2
f 191//2 190//2 189//2
f 191//2 192//2 190//2
f 14//3 15//3 188//3 190//3
f 55//4 56//4 122//4 126//4
f 35//5 36//5 99//5 100//5
f 47//6 48//6 140//6 134//6
f 11//7 12//7 191//7 189//7
f 67//8 68//8 127//8 125//8
f 18//9 19//9 173//9 179//9
f 91//10 92//10 164//10 166//10
f 38//11 39//11 101//11 98//11
f 23//12 24//12 150//12 153//12
f 7//13 8//13 180//13 174//13
f 59//14 60//14 111//14 114//14
f 2//15 3//15 154//15 147//15
f 71//16 72//16 141//16 137//16
f 12//17 13//17 192//17 191//17
f 63//18 64//18 115//18 113//18
f 20//19 21//19 161//19 167//19
f 13//20 14//20 190//20 192//20
f 54//21 55//21 126//21 128//21
f 83//22 84//22 181//22 177//22
f 5//23 6//23 168//23 162//23
f 34//24 35//24 100//24 102//24
f 39//25 40//25 103//25 101//25
f 94//26 95//26 151//26 155//26
f 50//27 51//27 138//27 142//27
f 28//28 29//28 123//28 129//28
f 58//29 59//29 114//29 116//29
f 79//30 80//30 169//30 165//30
f 75//31 76//31 156//31 152//31
f 45//32 46//32 130//32 124//32
f 86//33 87//33 178//33 182//33
f 25//34 26//34 139//34 143//34
f 84//35 85//35 183//35 181//35
f 30//36 31//36 108//36 117//36
f 33//37 34//37 102//37 104//37
f 48//38 1//38 144//38 140//38
f 68//39 69//39 131//39 127//39
f 43//40 44//40 118//40 109//40
f 90//41 91//41 166//41 170//41
f 40//42 41//42 105//42 103//42
f 22//43 23//43 153//43 157//43
f 80//44 81//44 171//44 169//44
f 3//45 4//45 158//45 154//45
f 72//46 73//46 145//46 141//46
f 85//47 86//47 182//47 183//47
f 64//48 65//48 119//48 115//48
f 53//49 54//49 128//49 132//49
f 32//50 33//50 104//50 106//50
f 76//51 77//51 159//51 156//51
f 89//52 90//52 170//52 172//52
f 41//53 42//53 107//53 105//53
f 49//54 50//54 142//54 146//54
f 27//55 28//55 129//55 133//55
f 17//56 18//56 179//56 184//56
f 57//57 58//57 116//57 120//57
f 1//58 2//58 147//58 144//58
f 46//59 47//59 134//59 130//59
f 8//60 9//60 185//60 180//60
f 65//61 66//61 121//61 119//61
f 19//62 20//62 167//62 173//62
f 93//63 94//63 155//63 160//63
f 6//64 7//64 174//64 168//64
f 31//65 32//65 106//65 108//65
f 69//66 70//66 135//66 131//66
f 42//67 43//67 109//67 107//67
f 21//68 22//68 157//68 161//68
f 96//69 49//69 146//69 148//69
f 16//70 17//70 184//70 186//70
f 56//71 57//71 120//71 122//71
f 81//72 82//72 175//72 171//72
f 4//73 5//73 162//73 158//73
f 73//74 74//74 149//74 145//74
f 9//75 10//75 187//75 185//75
f 52//76 53//76 132//76 136//76
f 29//77 30//77 117//77 123//77
f 77//78 78//78 163//78 159//78
f 70//79 71//79 137//79 135//79
f 44//80 45//80 124//80 118//80
f 88//81 89//81 172//81 176//81
f 24//82 25//82 143//82 150//82
f 15//83 16//83 186//83 188//83
f 82//84 83//84 177//84 175//84
f 60//85 61//85 110//85 111//85
f 37//86 38//86 98//86 97//86
f 10//87 11//87 189//87 187//87
f 66//88 67//88 125//88 121//88
f 61//89 62//89 112//89 110//89
f 92//90 93//90 160//90 164//90
f 95//91 96//91 148//91 151//91
f 51//92 52//92 136//92 138//92
f 78//93 79//93 165//93 163//93
f 36//94 37//94 97//94 99//94
f 74//95 75//95 152//95 149//95
f 87//96 88//96 176//96 178//96
f 62//97 63//97 113//97 112//97
f 26//98 27//98 133//98 139//98
