# Blender 5.0.1
# www.blender.org
mtllib U.mtl
o U
v 4.387603 6.374921 -1.325996
v 2.917603 6.374921 -1.325996
v 2.917603 0.419920 -1.325997
v 2.914938 0.184304 -1.325997
v 2.906283 -0.042511 -1.325997
v 2.890650 -0.260471 -1.325997
v 2.867047 -0.469525 -1.325997
v 2.834486 -0.669620 -1.325997
v 2.791977 -0.860705 -1.325997
v 2.738532 -1.042728 -1.325997
v 2.673158 -1.215636 -1.325997
v 2.594868 -1.379377 -1.325997
v 2.502672 -1.533899 -1.325997
v 2.395580 -1.679151 -1.325997
v 2.272604 -1.815080 -1.325997
v 2.149184 -1.928995 -1.325997
v 2.011492 -2.037650 -1.325997
v 1.859635 -2.140158 -1.325997
v 1.693714 -2.235636 -1.325997
v 1.513836 -2.323196 -1.325997
v 1.320103 -2.401955 -1.325997
v 1.112621 -2.471026 -1.325996
v 0.891492 -2.529525 -1.325996
v 0.656822 -2.576565 -1.325996
v 0.408715 -2.611261 -1.325996
v 0.147273 -2.632728 -1.325996
v -0.127397 -2.640080 -1.325996
v -0.345522 -2.634134 -1.325996
v -0.557397 -2.616261 -1.325996
v -0.763021 -2.586408 -1.325996
v -0.962396 -2.544525 -1.325996
v -1.155521 -2.490558 -1.325996
v -1.342396 -2.424455 -1.325997
v -1.523021 -2.346165 -1.325997
v -1.697396 -2.255635 -1.325997
v -1.865521 -2.152814 -1.325997
v -2.027396 -2.037649 -1.325997
v -2.183021 -1.910088 -1.325997
v -2.332397 -1.770080 -1.325997
v -2.442180 -1.653136 -1.325997
v -2.539411 -1.533275 -1.325997
v -2.624663 -1.408205 -1.325997
v -2.698508 -1.275636 -1.325997
v -2.761520 -1.133275 -1.325997
v -2.814272 -0.978830 -1.325997
v -2.857336 -0.810011 -1.325997
v -2.891286 -0.624525 -1.325997
v -2.916694 -0.420080 -1.325997
v -2.934133 -0.194386 -1.325997
v -2.944176 0.054851 -1.325997
v -2.947397 0.329920 -1.325997
v -2.947397 6.374921 -1.325996
v -4.417397 6.374921 -1.325996
v -4.417397 0.014920 -1.325997
v -4.374827 -0.649976 -1.325997
v -4.251842 -1.250497 -1.325997
v -4.055522 -1.787893 -1.325997
v -3.792953 -2.263414 -1.325997
v -3.471216 -2.678310 -1.325996
v -3.097396 -3.033830 -1.325996
v -2.678577 -3.331227 -1.325996
v -2.221841 -3.571748 -1.325996
v -1.734271 -3.756643 -1.325996
v -1.222952 -3.887164 -1.325996
v -0.694966 -3.964560 -1.325996
v -0.157396 -3.990080 -1.325996
v 0.571692 -3.956165 -1.325996
v 1.236562 -3.856261 -1.325996
v 1.837369 -3.693127 -1.325996
v 2.374270 -3.469525 -1.325996
v 2.847420 -3.188214 -1.325996
v 3.256978 -2.851955 -1.325996
v 3.603097 -2.463509 -1.325996
v 3.885935 -2.025635 -1.325997
v 4.105649 -1.541095 -1.325997
v 4.262393 -1.012649 -1.325997
v 4.356325 -0.443057 -1.325997
v 4.387603 0.164920 -1.325997
v -4.417397 6.374921 1.330587
v -4.417397 0.014920 1.330588
v -2.947397 6.374921 1.330587
v -2.947397 0.329920 1.330588
v 2.917603 6.374921 1.330587
v 2.917603 0.419920 1.330588
v 4.387603 6.374921 1.330587
v 4.387603 0.164920 1.330588
v 2.914938 0.184304 1.330588
v -2.944176 0.054851 1.330588
v 2.906283 -0.042511 1.330588
v 4.356325 -0.443057 1.330588
v -2.934133 -0.194386 1.330588
v -4.374827 -0.649976 1.330588
v 2.890650 -0.260470 1.330588
v -2.916694 -0.420080 1.330588
v 2.867047 -0.469525 1.330588
v -2.891286 -0.624525 1.330588
v 4.262393 -1.012649 1.330588
v 2.834486 -0.669620 1.330588
v -2.857336 -0.810011 1.330588
v -4.251842 -1.250497 1.330588
v 2.791977 -0.860705 1.330588
v -2.814272 -0.978830 1.330588
v 2.738532 -1.042727 1.330588
v -2.761520 -1.133275 1.330588
v 4.105649 -1.541095 1.330588
v 2.673158 -1.215636 1.330588
v -2.698508 -1.275636 1.330588
v 2.594868 -1.379377 1.330588
v -4.055522 -1.787893 1.330588
v -2.624663 -1.408205 1.330588
v 2.502672 -1.533899 1.330588
v -2.539411 -1.533275 1.330588
v -2.442180 -1.653136 1.330588
v 2.395580 -1.679151 1.330588
v 3.885935 -2.025636 1.330588
v -2.332397 -1.770080 1.330588
v 2.272604 -1.815080 1.330588
v -2.183021 -1.910088 1.330588
v -3.792953 -2.263413 1.330588
v 2.149184 -1.928995 1.330588
v -2.027396 -2.037649 1.330588
v 2.011492 -2.037649 1.330588
v 3.603097 -2.463509 1.330588
v -1.865521 -2.152814 1.330588
v 1.859635 -2.140158 1.330588
v 1.693714 -2.235636 1.330588
v -1.697396 -2.255635 1.330588
v 1.513836 -2.323196 1.330588
v -1.523021 -2.346165 1.330588
v -3.471216 -2.678309 1.330588
v 1.320103 -2.401955 1.330588
v -1.342396 -2.424455 1.330588
v 1.112621 -2.471026 1.330588
v -1.155521 -2.490557 1.330588
v 3.256978 -2.851955 1.330588
v 0.891492 -2.529524 1.330588
v -0.962396 -2.544524 1.330588
v 0.656822 -2.576564 1.330588
v -0.763021 -2.586408 1.330588
v 0.408715 -2.611260 1.330588
v -0.557397 -2.616261 1.330588
v 0.147273 -2.632727 1.330588
v -0.345522 -2.634134 1.330588
v -0.127397 -2.640080 1.330588
v -3.097396 -3.033830 1.330588
v 2.847420 -3.188214 1.330588
v -2.678577 -3.331226 1.330588
v 2.374270 -3.469524 1.330588
v -2.221841 -3.571747 1.330588
v 1.837369 -3.693127 1.330588
v -1.734271 -3.756643 1.330588
v 1.236562 -3.856261 1.330588
v -1.222952 -3.887164 1.330588
v 0.571692 -3.956165 1.330588
v -0.694966 -3.964560 1.330588
v -0.157396 -3.990080 1.330588
vn -0.0000 -0.0000 -1.0000
vn -0.0000 -0.0000 1.0000
vn 0.5217 0.8531 -0.0000
vn 0.2620 -0.9651 -0.0000
vn 0.9999 0.0117 -0.0000
vn 1.0000 0.0059 -0.0000
vn -0.4377 0.8991 -0.0000
vn -0.2473 -0.9689 -0.0000
vn -0.9993 0.0381 -0.0000
vn 0.1437 0.9896 -0.0000
vn 0.9107 -0.4130 -0.0000
vn 0.9690 0.2472 -0.0000
vn -0.0818 0.9966 -0.0000
vn -0.9595 0.2817 -0.0000
vn 0.4608 0.8875 -0.0000
vn 0.7291 0.6844 -0.0000
vn 0.1486 -0.9889 -0.0000
vn 0.9987 -0.0514 -0.0000
vn -0.7902 -0.6128 -0.0000
vn -0.7416 0.6709 -0.0000
vn -0.1450 -0.9894 -0.0000
vn 0.0841 0.9965 -0.0000
vn 0.9463 0.3232 -0.0000
vn 0.9992 0.0403 -0.0000
vn -0.0268 0.9996 -0.0000
vn -0.3766 0.9264 -0.0000
vn -0.0474 -0.9989 -0.0000
vn -0.9980 -0.0639 -0.0000
vn 0.6839 0.7296 -0.0000
vn 0.9587 -0.2844 -0.0000
vn 0.0465 -0.9989 -0.0000
vn -0.8754 -0.4834 -0.0000
vn -0.9354 0.3537 -0.0000
vn -0.9974 0.0715 -0.0000
vn 0.0273 0.9996 -0.0000
vn 0.3977 0.9175 -0.0000
vn -0.3159 0.9488 -0.0000
vn -0.6782 0.7348 -0.0000
vn -0.6891 -0.7246 -0.0000
vn 0.9144 0.4047 -0.0000
vn 0.9970 0.0770 -0.0000
vn -0.9022 0.4314 -0.0000
vn -0.9937 0.1122 -0.0000
vn -1.0000 -0.0000 -0.0000
vn 0.3335 0.9428 -0.0000
vn 0.6339 0.7734 -0.0000
vn 0.6346 -0.7729 -0.0000
vn -0.6195 0.7850 -0.0000
vn -0.9393 -0.3431 -0.0000
vn -0.5790 -0.8154 -0.0000
vn -0.0000 1.0000 -0.0000
vn 0.7466 -0.6653 -0.0000
vn 0.9924 0.1233 -0.0000
vn -0.2557 0.9667 -0.0000
vn 1.0000 -0.0000 -0.0000
vn 0.8400 -0.5426 -0.0000
vn 0.8736 0.4866 -0.0000
vn 0.9867 -0.1627 -0.0000
vn 0.5110 -0.8596 -0.0000
vn -1.0000 0.0057 -0.0000
vn -0.8588 0.5124 -0.0000
vn -0.9870 0.1606 -0.0000
vn -0.4659 -0.8848 -0.0000
vn 0.2691 0.9631 -0.0000
vn 0.5797 0.8148 -0.0000
vn -0.1965 0.9805 -0.0000
vn -0.5595 0.8288 -0.0000
vn 0.8263 0.5632 -0.0000
vn 0.9837 0.1800 -0.0000
vn 0.3845 -0.9231 -0.0000
vn -0.4988 0.8667 -0.0000
vn -0.9797 -0.2006 -0.0000
vn -0.3546 -0.9350 -0.0000
vn -0.9999 0.0113 -0.0000
vn 0.2056 0.9786 -0.0000
vn 0.7766 0.6300 -0.0000
vn -0.1385 0.9904 -0.0000
vn -0.8049 0.5934 -0.0000
vn -0.9761 0.2172 -0.0000
s 1
f 54//1 53//1 52//1
f 54//1 52//1 51//1
f 3//1 2//1 1//1
f 3//1 1//1 78//1
f 4//1 3//1 78//1
f 54//1 51//1 50//1
f 5//1 4//1 78//1
f 5//1 78//1 77//1
f 54//1 50//1 49//1
f 55//1 54//1 49//1
f 6//1 5//1 77//1
f 55//1 49//1 48//1
f 7//1 6//1 77//1
f 55//1 48//1 47//1
f 7//1 77//1 76//1
f 8//1 7//1 76//1
f 55//1 47//1 46//1
f 56//1 55//1 46//1
f 9//1 8//1 76//1
f 56//1 46//1 45//1
f 10//1 9//1 76//1
f 56//1 45//1 44//1
f 10//1 76//1 75//1
f 11//1 10//1 75//1
f 56//1 44//1 43//1
f 12//1 11//1 75//1
f 57//1 56//1 43//1
f 57//1 43//1 42//1
f 13//1 12//1 75//1
f 57//1 42//1 41//1
f 57//1 41//1 40//1
f 14//1 13//1 75//1
f 14//1 75//1 74//1
f 57//1 40//1 39//1
f 15//1 14//1 74//1
f 57//1 39//1 38//1
f 58//1 57//1 38//1
f 16//1 15//1 74//1
f 58//1 38//1 37//1
f 17//1 16//1 74//1
f 17//1 74//1 73//1
f 58//1 37//1 36//1
f 18//1 17//1 73//1
f 19//1 18//1 73//1
f 58//1 36//1 35//1
f 20//1 19//1 73//1
f 58//1 35//1 34//1
f 59//1 58//1 34//1
f 21//1 20//1 73//1
f 59//1 34//1 33//1
f 22//1 21//1 73//1
f 59//1 33//1 32//1
f 22//1 73//1 72//1
f 23//1 22//1 72//1
f 59//1 32//1 31//1
f 24//1 23//1 72//1
f 59//1 31//1 30//1
f 25//1 24//1 72//1
f 59//1 30//1 29//1
f 26//1 25//1 72//1
f 59//1 29//1 28//1
f 27//1 26//1 72//1
f 59//1 28//1 27//1
f 59//1 27//1 72//1
f 60//1 59//1 72//1
f 60//1 72//1 71//1
f 61//1 60//1 71//1
f 61//1 71//1 70//1
f 62//1 61//1 70//1
f 62//1 70//1 69//1
f 63//1 62//1 69//1
f 63//1 69//1 68//1
f 64//1 63//1 68//1
f 64//1 68//1 67//1
f 65//1 64//1 67//1
f 65//1 67//1 66//1
f 80//2 81//2 79//2
f 80//2 82//2 81//2
f 84//2 85//2 83//2
f 84//2 86//2 85//2
f 87//2 86//2 84//2
f 80//2 88//2 82//2
f 89//2 86//2 87//2
f 89//2 90//2 86//2
f 80//2 91//2 88//2
f 92//2 91//2 80//2
f 93//2 90//2 89//2
f 92//2 94//2 91//2
f 95//2 90//2 93//2
f 92//2 96//2 94//2
f 95//2 97//2 90//2
f 98//2 97//2 95//2
f 92//2 99//2 96//2
f 100//2 99//2 92//2
f 101//2 97//2 98//2
f 100//2 102//2 99//2
f 103//2 97//2 101//2
f 100//2 104//2 102//2
f 103//2 105//2 97//2
f 106//2 105//2 103//2
f 100//2 107//2 104//2
f 108//2 105//2 106//2
f 109//2 107//2 100//2
f 109//2 110//2 107//2
f 111//2 105//2 108//2
f 109//2 112//2 110//2
f 109//2 113//2 112//2
f 114//2 105//2 111//2
f 114//2 115//2 105//2
f 109//2 116//2 113//2
f 117//2 115//2 114//2
f 109//2 118//2 116//2
f 119//2 118//2 109//2
f 120//2 115//2 117//2
f 119//2 121//2 118//2
f 122//2 115//2 120//2
f 122//2 123//2 115//2
f 119//2 124//2 121//2
f 125//2 123//2 122//2
f 126//2 123//2 125//2
f 119//2 127//2 124//2
f 128//2 123//2 126//2
f 119//2 129//2 127//2
f 130//2 129//2 119//2
f 131//2 123//2 128//2
f 130//2 132//2 129//2
f 133//2 123//2 131//2
f 130//2 134//2 132//2
f 133//2 135//2 123//2
f 136//2 135//2 133//2
f 130//2 137//2 134//2
f 138//2 135//2 136//2
f 130//2 139//2 137//2
f 140//2 135//2 138//2
f 130//2 141//2 139//2
f 142//2 135//2 140//2
f 130//2 143//2 141//2
f 144//2 135//2 142//2
f 130//2 144//2 143//2
f 130//2 135//2 144//2
f 145//2 135//2 130//2
f 145//2 146//2 135//2
f 147//2 146//2 145//2
f 147//2 148//2 146//2
f 149//2 148//2 147//2
f 149//2 150//2 148//2
f 151//2 150//2 149//2
f 151//2 152//2 150//2
f 153//2 152//2 151//2
f 153//2 154//2 152//2
f 155//2 154//2 153//2
f 155//2 156//2 154//2
f 35//3 36//3 124//3 127//3
f 68//4 69//4 150//4 152//4
f 50//5 51//6 82//6 88//5
f 19//7 20//7 128//7 126//7
f 63//8 64//8 153//8 151//8
f 4//9 5//9 89//9 87//9
f 29//10 30//10 139//10 141//10
f 74//11 75//11 105//11 115//11
f 45//12 46//12 99//12 102//12
f 25//13 26//13 142//13 140//13
f 9//14 10//14 103//14 101//14
f 34//15 35//15 127//15 129//15
f 39//16 40//16 113//16 116//16
f 67//17 68//17 152//17 154//17
f 77//18 78//18 86//18 90//18
f 58//19 59//19 130//19 119//19
f 14//20 15//20 117//20 114//20
f 64//21 65//21 155//21 153//21
f 28//22 29//22 141//22 143//22
f 44//23 45//23 102//23 104//23
f 49//24 50//24 88//24 91//24
f 26//25 27//25 144//25 142//25
f 20//26 21//26 131//26 128//26
f 65//27 66//27 156//27 155//27
f 54//28 55//28 92//28 80//28
f 38//29 39//29 116//29 118//29
f 75//30 76//30 97//30 105//30
f 66//31 67//31 154//31 156//31
f 57//32 58//32 119//32 109//32
f 10//33 11//33 106//33 103//33
f 5//34 6//34 93//34 89//34
f 27//35 28//35 143//35 144//35
f 33//36 34//36 129//36 132//36
f 21//37 22//37 133//37 131//37
f 15//38 16//38 120//38 117//38
f 59//39 60//39 145//39 130//39
f 43//40 44//40 104//40 107//40
f 48//41 49//41 91//41 94//41
f 11//42 12//42 108//42 106//42
f 6//43 7//43 95//43 93//43
f 53//44 54//44 80//44 79//44
f 32//45 33//45 132//45 134//45
f 37//46 38//46 118//46 121//46
f 71//47 72//47 135//47 146//47
f 16//48 17//48 122//48 120//48
f 56//49 57//49 109//49 100//49
f 60//50 61//50 147//50 145//50
f 52//51 53//51 79//51 81//51
f 72//52 73//52 123//52 135//52
f 47//53 48//53 94//53 96//53
f 22//54 23//54 136//54 133//54
f 51//6 52//55 81//55 82//6
f 73//56 74//56 115//56 123//56
f 42//57 43//57 107//57 110//57
f 76//58 77//58 90//58 97//58
f 70//59 71//59 146//59 148//59
f 2//44 3//60 84//60 83//44
f 12//61 13//61 111//61 108//61
f 7//62 8//62 98//62 95//62
f 61//63 62//63 149//63 147//63
f 31//64 32//64 134//64 137//64
f 36//65 37//65 121//65 124//65
f 1//51 2//51 83//51 85//51
f 23//66 24//66 138//66 136//66
f 17//67 18//67 125//67 122//67
f 41//68 42//68 110//68 112//68
f 46//69 47//69 96//69 99//69
f 69//70 70//70 148//70 150//70
f 78//55 1//55 85//55 86//55
f 18//71 19//71 126//71 125//71
f 55//72 56//72 100//72 92//72
f 62//73 63//73 151//73 149//73
f 3//60 4//74 87//74 84//60
f 30//75 31//75 137//75 139//75
f 40//76 41//76 112//76 113//76
f 24//77 25//77 140//77 138//77
f 13//78 14//78 114//78 111//78
f 8//79 9//79 101//79 98//79
